<svg xmlns="http://www.w3.org/2000/svg" width="16.403" height="16.49" viewBox="0 0 16.403 16.49">
  <g id="house" transform="translate(-1.352 0)">
    <g id="Group_1202" data-name="Group 1202" transform="translate(1.352 0)">
      <path id="Path_788" data-name="Path 788" d="M17.587,7.561,9.936.155a.55.55,0,0,0-.765,0L1.52,7.561a.55.55,0,0,0,.382.945h1.92V15.94a.55.55,0,0,0,.55.55h2.84V10.833a.55.55,0,0,1,.55-.55h3.585a.55.55,0,0,1,.55.55V16.49h2.84a.55.55,0,0,0,.55-.55V8.506h1.92A.55.55,0,0,0,17.587,7.561Z" transform="translate(-1.352 0)" fill="#8d1f1e"/>
    </g>
  </g>
</svg>
