<svg xmlns="http://www.w3.org/2000/svg" width="14.809" height="19.745" viewBox="0 0 14.809 19.745">
  <g id="shopping-list" transform="translate(-64)">
    <g id="Group_1205" data-name="Group 1205" transform="translate(67.702)">
      <g id="Group_1204" data-name="Group 1204">
        <path id="Path_789" data-name="Path 789" d="M166.787,1.234h-1.34a1.852,1.852,0,0,0-3.491,0h-1.339a.617.617,0,0,0-.617.617V4.319a.617.617,0,0,0,.617.617h6.17a.617.617,0,0,0,.617-.617V1.851A.617.617,0,0,0,166.787,1.234Z" transform="translate(-160)" fill="#969696"/>
      </g>
    </g>
    <g id="Group_1207" data-name="Group 1207" transform="translate(64 2.468)">
      <g id="Group_1206" data-name="Group 1206">
        <path id="Path_790" data-name="Path 790" d="M77.575,64H76.34v1.851A1.853,1.853,0,0,1,74.489,67.7h-6.17a1.853,1.853,0,0,1-1.851-1.851V64H65.234A1.236,1.236,0,0,0,64,65.234V80.043a1.221,1.221,0,0,0,1.234,1.234h12.34a1.221,1.221,0,0,0,1.234-1.234V65.234A1.221,1.221,0,0,0,77.575,64Zm-6.35,10.926-2.468,2.468a.62.62,0,0,1-.874,0L66.648,76.16a.617.617,0,1,1,.872-.872l.8.8,2.031-2.031a.617.617,0,0,1,.874.872Zm0-4.936-2.468,2.468a.62.62,0,0,1-.874,0l-1.234-1.234a.617.617,0,0,1,.872-.872l.8.8,2.031-2.031a.617.617,0,0,1,.874.872Zm4.5,6.35H73.255a.617.617,0,1,1,0-1.234h2.468a.617.617,0,1,1,0,1.234Zm0-4.936H73.255a.617.617,0,0,1,0-1.234h2.468a.617.617,0,0,1,0,1.234Z" transform="translate(-64 -64)" fill="#969696"/>
      </g>
    </g>
  </g>
</svg>
