<svg xmlns="http://www.w3.org/2000/svg" width="17.625" height="17.626" viewBox="0 0 17.625 17.626">
  <g id="signs_1_" data-name="signs (1)" transform="translate(-0.014)">
    <g id="Group_1555" data-name="Group 1555" transform="translate(0.014)">
      <g id="Group_1554" data-name="Group 1554" transform="translate(0)">
        <path id="Path_794" data-name="Path 794" d="M305.968,152a.742.742,0,0,0-.159-.239l-2.2-2.2a.734.734,0,0,0-1.038,1.038l.95.95h-4.1a.734.734,0,1,0,0,1.469h4.1l-.95.95A.734.734,0,1,0,303.606,155l2.2-2.2a.727.727,0,0,0,.159-.239A.735.735,0,0,0,305.968,152Z" transform="translate(-288.398 -144.198)" fill="#969696"/>
        <path id="Path_795" data-name="Path 795" d="M12.5,10.282a.734.734,0,0,0-.734.734v3.672H8.827V2.938a.735.735,0,0,0-.524-.7L5.753,1.469h6.012V5.141a.734.734,0,0,0,1.469,0V.734A.734.734,0,0,0,12.5,0H.748A.654.654,0,0,0,.673.014.725.725,0,0,0,.361.123C.345.133.325.134.31.145S.3.158.3.162A.728.728,0,0,0,.1.394.6.6,0,0,0,.08.456.7.7,0,0,0,.022.628a.457.457,0,0,0,0,.064c0,.015-.01.028-.01.043V15.423a.734.734,0,0,0,.59.72l7.344,1.469a.683.683,0,0,0,.144.015.735.735,0,0,0,.734-.734v-.734H12.5a.734.734,0,0,0,.734-.734V11.016A.734.734,0,0,0,12.5,10.282Z" transform="translate(-0.014)" fill="#969696"/>
      </g>
    </g>
  </g>
</svg>
