<svg id="Group_1594" data-name="Group 1594" xmlns="http://www.w3.org/2000/svg" width="40.005" height="40.005" viewBox="0 0 40.005 40.005">
  <path id="Path_805" data-name="Path 805" d="M38.853,20.388H31.929v-2.4a7.32,7.32,0,0,0,6.155-7.217V9.233a1.154,1.154,0,0,0-2.308,0v1.539a5.008,5.008,0,0,1-3.847,4.865V14.618a1.925,1.925,0,0,0-1.923-1.923H28.852V8.463a5.008,5.008,0,0,0-4.036-4.906l.859-1.934A1.154,1.154,0,1,0,23.566.686L22.332,3.463H17.677L16.443.686a1.154,1.154,0,1,0-2.109.937l.859,1.934a5.008,5.008,0,0,0-4.036,4.906v4.231H10A1.925,1.925,0,0,0,8.08,14.618v1.018a5.008,5.008,0,0,1-3.847-4.865V9.232a1.154,1.154,0,0,0-2.308,0v1.539A7.32,7.32,0,0,0,8.08,17.988v2.4H1.156a1.154,1.154,0,0,0,0,2.308H8.08v2.4a7.32,7.32,0,0,0-6.155,7.217v1.539a1.154,1.154,0,1,0,2.308,0V32.312A5.008,5.008,0,0,1,8.08,27.447v.633a11.925,11.925,0,1,0,23.849,0v-.633a5.008,5.008,0,0,1,3.847,4.865v1.539a1.154,1.154,0,1,0,2.308,0V32.312A7.32,7.32,0,0,0,31.929,25.1V22.7h6.924a1.154,1.154,0,0,0,0-2.308ZM13.465,8.463a2.7,2.7,0,0,1,2.693-2.693h7.693a2.7,2.7,0,0,1,2.693,2.693v4.231H13.465ZM29.621,28.081a9.617,9.617,0,1,1-19.233,0V15H18.85V26.158a1.154,1.154,0,1,0,2.308,0V15h8.463Z" transform="translate(-0.002 0)" fill="#fff"/>
</svg>
