<svg id="shapes-and-symbols_1_" data-name="shapes-and-symbols (1)" xmlns="http://www.w3.org/2000/svg" width="39.773" height="39.773" viewBox="0 0 39.773 39.773">
  <path id="Path_800" data-name="Path 800" d="M412,126.777a.777.777,0,1,0,.777-.777A.777.777,0,0,0,412,126.777Zm0,0" transform="translate(-379.995 -116.212)" fill="#fff"/>
  <path id="Path_801" data-name="Path 801" d="M434.171,167.676a14.8,14.8,0,0,1-.3,2.952.777.777,0,0,0,.606.916.766.766,0,0,0,.156.016.778.778,0,0,0,.76-.622,16.346,16.346,0,0,0,.328-3.263,16.138,16.138,0,0,0-1.577-7,.777.777,0,1,0-1.4.668A14.6,14.6,0,0,1,434.171,167.676Zm0,0" transform="translate(-399.059 -147.789)" fill="#fff"/>
  <path id="Path_802" data-name="Path 802" d="M204.545,216.875h-.777v-10.1a.777.777,0,0,0-.777-.777h-6.214a.777.777,0,0,0-.777.777v3.107a.777.777,0,0,0,.777.777h.777v6.215h-.777a.777.777,0,0,0-.777.777v3.107a.777.777,0,0,0,.777.777h7.768a.777.777,0,0,0,.777-.777v-3.107A.777.777,0,0,0,204.545,216.875Zm-.777,3.107h-6.215v-1.554h.777a.777.777,0,0,0,.777-.777v-7.768a.777.777,0,0,0-.777-.777h-.777v-1.554h4.661v10.1a.777.777,0,0,0,.777.777h.777Zm0,0" transform="translate(-180.774 -189.998)" fill="#fff"/>
  <path id="Path_803" data-name="Path 803" d="M219.107,112.215A3.107,3.107,0,1,0,216,109.107,3.111,3.111,0,0,0,219.107,112.215Zm0-4.661a1.554,1.554,0,1,1-1.554,1.554A1.555,1.555,0,0,1,219.107,107.554Zm0,0" transform="translate(-199.221 -97.766)" fill="#fff"/>
  <path id="Path_804" data-name="Path 804" d="M19.886,0A20.224,20.224,0,0,0,0,19.886,21.183,21.183,0,0,0,2.822,30.4L.039,38.751a.777.777,0,0,0,.983.982L9.37,36.95a21.178,21.178,0,0,0,10.516,2.823A20.223,20.223,0,0,0,39.772,19.886,20.223,20.223,0,0,0,19.886,0Zm0,38.219a19.43,19.43,0,0,1-10-2.777.776.776,0,0,0-.662-.081L2,37.768,4.411,30.55a.776.776,0,0,0-.081-.662,19.429,19.429,0,0,1-2.777-10A18.578,18.578,0,0,1,19.886,1.554,18.578,18.578,0,0,1,38.219,19.886,18.578,18.578,0,0,1,19.886,38.219Zm0,0" transform="translate(0)" fill="#fff"/>
</svg>
