<svg xmlns="http://www.w3.org/2000/svg" width="22.2" height="27.808" viewBox="0 0 22.2 27.808">
  <g id="tools-and-utensils" transform="translate(-51.9 0.1)">
    <g id="Group_1586" data-name="Group 1586" transform="translate(52 0)">
      <g id="Group_1585" data-name="Group 1585">
        <path id="Path_797" data-name="Path 797" d="M70.765,10.137H59.331V5.7a3.669,3.669,0,0,1,7.333,0V7.765h2.157V5.7a5.825,5.825,0,0,0-11.647,0v4.434H55.235A3.239,3.239,0,0,0,52,13.373v11a3.239,3.239,0,0,0,3.235,3.235H70.765A3.239,3.239,0,0,0,74,24.373v-11A3.239,3.239,0,0,0,70.765,10.137Zm1.078,14.235a1.08,1.08,0,0,1-1.078,1.078H55.235a1.08,1.08,0,0,1-1.078-1.078v-11a1.08,1.08,0,0,1,1.078-1.078H70.765a1.08,1.08,0,0,1,1.078,1.078Z" transform="translate(-52 0)" fill="#c0c4ca" stroke="#f3f4f6" stroke-width="0.2"/>
      </g>
    </g>
    <g id="Group_1588" data-name="Group 1588" transform="translate(61.005 15.422)">
      <g id="Group_1587" data-name="Group 1587">
        <path id="Path_798" data-name="Path 798" d="M221,286a1.995,1.995,0,0,0-1.08,3.672v2.367a1.078,1.078,0,0,0,2.157,0v-2.365A1.995,1.995,0,0,0,221,286Z" transform="translate(-219 -286)" fill="#c0c4ca" stroke="#f3f4f6" stroke-width="0.2"/>
      </g>
    </g>
  </g>
</svg>
