<svg xmlns="http://www.w3.org/2000/svg" width="436.618" height="239" viewBox="0 0 436.618 239">
  <g id="Group_1614" data-name="Group 1614" transform="translate(-348.785 -659.342)">
    <path id="Path_759" data-name="Path 759" d="M155.677,82.838A72.839,72.839,0,1,1,82.839,10,72.835,72.835,0,0,1,155.677,82.838Z" transform="translate(485.953 703.518)" fill="#f9f9f9"/>
    <path id="Path_760" data-name="Path 760" d="M52.871,51.435A13.436,13.436,0,1,1,39.436,38,13.436,13.436,0,0,1,52.871,51.435Z" transform="translate(505.844 740.581)" fill="#009fda"/>
    <path id="Path_762" data-name="Path 762" d="M80.871,51.435A13.436,13.436,0,1,1,67.436,38,13.436,13.436,0,0,1,80.871,51.435Z" transform="translate(524.868 740.581)" fill="#009fda"/>
    <path id="Path_764" data-name="Path 764" d="M66.871,77.435a13.436,13.436,0,0,0-26.871,0" transform="translate(515.356 758.247)" fill="none" stroke="#009fda" stroke-width="4"/>
    <text id="_4" data-name="4" transform="translate(348.785 849.342)" fill="#fff" font-size="196" font-family="Montserrat-Bold, Montserrat" font-weight="700"><tspan x="0" y="0">4</tspan></text>
    <text id="_4-2" data-name="4" transform="translate(649.403 849.342)" fill="#fff" font-size="196" font-family="Montserrat-Bold, Montserrat" font-weight="700"><tspan x="0" y="0">4</tspan></text>
  </g>
</svg>
